<?xml version="1.0" encoding="UTF-8"?>
<svg id="a" data-name="Layer 1" xmlns="http://www.w3.org/2000/svg" viewBox="0 0 220 220.01">
  <path d="M180,132.68v10.64c0,4.79-3.89,8.68-8.68,8.68h-10.63c-4.79,0-8.68,3.89-8.68,8.68v9.77c0,5.28-4.28,9.55-9.55,9.55h-23.78c-4.79,0-8.68-3.89-8.68-8.68v-10.64c0-4.79,3.89-8.68,8.68-8.68h24.64c4.64,0,8.44-3.65,8.67-8.24,0-.15,0-.3,0-.44v-10.64c0-.15,0-.3,0-.44-.23-4.59-4.03-8.24-8.67-8.24h-38.65c-4.64,0-8.44,3.65-8.67,8.24,0,.15,0,.3,0,.44v10.64c0,.08,0,.16,0,.23-.12,4.69-3.97,8.46-8.68,8.46h-10.63c-4.79,0-8.68,3.89-8.68,8.68v10.64c0,4.79-3.89,8.68-8.68,8.68h-10.64c-4.79,0-8.68-3.89-8.68-8.68v-10.64c0-4.79,3.89-8.68,8.68-8.68h10.64c4.79,0,8.68-3.89,8.68-8.68V48.68c0-4.79,3.89-8.68,8.68-8.68h10.63c4.79,0,8.68,3.89,8.68,8.68v27.55c0,.15,0,.3,0,.44v10.64c0,.15,0,.3,0,.44.23,4.59,4.03,8.24,8.67,8.24h35.43s2.36,0,2.36,0c5.28,0,9.55,4.27,9.55,9.55v9.77c0,4.79,3.89,8.68,8.68,8.68h10.63c4.79,0,8.68,3.89,8.68,8.68Z" style="fill: #f9f9f9;"/>
</svg>