<?xml version="1.0" encoding="UTF-8"?>
<svg id="a" data-name="Layer 1" xmlns="http://www.w3.org/2000/svg" viewBox="0 0 339.82 155.93">
  <path d="M115.82,90.23v5.76c0,2.59-2.1,4.69-4.69,4.69h-5.75c-2.59,0-4.69,2.1-4.69,4.69v5.29c0,2.85-2.31,5.16-5.16,5.16h-12.86c-2.59,0-4.69-2.1-4.69-4.69v-5.76c0-2.59,2.1-4.69,4.69-4.69h13.33c2.51,0,4.56-1.97,4.69-4.46,0-.08,0-.16,0-.24v-5.76c0-.08,0-.16,0-.24-.13-2.48-2.18-4.46-4.69-4.46h-20.9c-2.51,0-4.56,1.97-4.69,4.46,0,.08,0,.16,0,.24v5.76s0,.08,0,.12c-.07,2.54-2.15,4.57-4.69,4.57h-5.75c-2.59,0-4.69,2.1-4.69,4.69v5.76c0,2.59-2.1,4.69-4.69,4.69h-5.76c-2.59,0-4.69-2.1-4.69-4.69v-5.76c0-2.59,2.1-4.69,4.69-4.69h5.76c2.59,0,4.69-2.1,4.69-4.69v-51.19c0-2.59,2.1-4.69,4.69-4.69h5.75c2.59,0,4.69,2.1,4.69,4.69v14.9c0,.08,0,.16,0,.24v5.76c0,.08,0,.16,0,.24.13,2.48,2.18,4.46,4.69,4.46h19.16s1.28,0,1.28,0c2.85,0,5.16,2.31,5.16,5.16v5.28c0,2.59,2.1,4.69,4.69,4.69h5.75c2.59,0,4.69,2.1,4.69,4.69Z" style="fill: #141414;"/>
  <g>
    <path d="M144.8,103.08v-44.51h21.11c8.08,0,13.74,4.58,13.74,11.26,0,5.09-3.69,9.03-9.16,10.36,6.17.95,10.11,5.15,10.11,10.81,0,7.12-5.85,12.08-14.31,12.08h-21.49ZM152.37,77.13h13.29c3.82,0,6.42-2.54,6.42-6.1,0-3.31-2.42-5.66-5.85-5.66h-13.86v11.76ZM152.37,96.21h14.31c3.82,0,6.17-2.73,6.17-6.3s-2.8-6.17-6.87-6.17h-13.61v12.46Z" style="fill: #141414;"/>
    <path d="M185.37,103.08v-33.7h6.04l.89,6.61c2.16-4.58,6.1-6.99,11.7-6.99h1.27v7.31h-1.27c-6.99,0-11.13,3.75-11.13,10.11v16.66h-7.5Z" style="fill: #141414;"/>
    <path d="M206.42,93.73c.06-7.89,7.88-9.54,14.43-10.3,5.09-.57,8.84-.76,8.9-3.43-.06-3.31-2.61-5.47-6.93-5.47s-7.63,2.42-8.08,5.91h-7.57c.7-7.12,7.06-12.08,15.77-12.08s14.12,4.96,14.12,12.15v15.26c0,.95.51,1.46,1.65,1.46h1.84v5.85h-3.56c-3.43,0-5.53-1.4-6.1-3.94-.13-.32-.25-.76-.32-1.14-1.97,3.62-5.66,5.79-11.38,5.79-7.76,0-12.85-3.75-12.78-10.05ZM229.75,90.42v-4.71c-1.27,1.97-4.51,2.42-8.08,2.86-4.2.51-7.69,1.08-7.69,4.64,0,2.93,2.35,4.64,6.74,4.64,5.15,0,9.03-2.93,9.03-7.44Z" style="fill: #141414;"/>
    <path d="M234.84,115.8v-6.36h4.83c2.8,0,4.26-1.53,4.26-4.45v-35.61h7.5v36.18c0,6.68-3.94,10.24-11.26,10.24h-5.34ZM242.85,59.96c0-2.73,2.1-4.83,4.83-4.83s4.83,2.1,4.83,4.83-2.03,4.9-4.83,4.9-4.83-2.1-4.83-4.9Z" style="fill: #141414;"/>
    <path d="M256.84,115.8v-6.36h6.1c2.8,0,4.32-1.02,4.96-2.8l1.34-3.56h-1.4l-13.35-33.7h8.08l9.67,25.56,9.47-25.56h7.82l-14.69,39.49c-1.72,4.51-5.28,6.93-11.89,6.93h-6.1Z" style="fill: #141414;"/>
    <path d="M290.05,98.18c0-2.73,2.1-4.83,4.83-4.83s4.83,2.1,4.83,4.83-2.03,4.9-4.83,4.9-4.83-2.1-4.83-4.9Z" style="fill: #141414;"/>
  </g>
</svg>